<svg width="30" height="64" viewBox="0 0 30 64" fill="none" xmlns="http://www.w3.org/2000/svg">
<g clip-path="url(#clip0_327_1915)">
<path d="M20.7076 7.13325C18.0096 3.94632 15.6864 0.709589 15.2118 0.0373468C15.1618 -0.0124489 15.0868 -0.0124489 15.0369 0.0373468C14.5622 0.709589 12.239 3.94632 9.54103 7.13325C-13.6164 36.5376 13.1883 56.3813 13.1883 56.3813L13.4131 56.5306C13.6129 59.5932 14.1126 64 14.1126 64H15.1118H16.1111C16.1111 64 16.6107 59.618 16.8105 56.5306L17.0353 56.3565C17.0603 56.3565 43.8649 36.5376 20.7076 7.13325ZM15.1118 55.933C15.1118 55.933 13.9127 54.9123 13.588 54.3893V54.3397L15.0369 22.3209C15.0369 22.2213 15.1868 22.2213 15.1868 22.3209L16.6357 54.3397V54.3893C16.3109 54.9123 15.1118 55.933 15.1118 55.933Z" fill="#00684A"/>
</g>
<defs>
<clipPath id="clip0_327_1915">
<rect width="29.7674" height="64" fill="white" transform="translate(0.116211)"/>
</clipPath>
</defs>
</svg>
