<svg width="105" height="65" viewBox="0 0 105 65" fill="none" xmlns="http://www.w3.org/2000/svg">
<g clip-path="url(#clip0_327_1923)">
<mask id="mask0_327_1923" style="mask-type:luminance" maskUnits="userSpaceOnUse" x="0" y="0" width="105" height="64">
<path d="M0.272949 0.5H105V63.3364H0.272949V0.5Z" fill="white"/>
</mask>
<g mask="url(#mask0_327_1923)">
<path fill-rule="evenodd" clip-rule="evenodd" d="M52.6366 0.5C38.6729 0.5 29.9457 7.48182 26.4548 21.4455C31.6911 14.4636 37.8002 11.8455 44.782 13.5909C48.7656 14.5858 51.6126 17.4775 54.7641 20.6755C59.8977 25.8867 65.84 31.9182 78.8184 31.9182C92.782 31.9182 101.509 24.9364 105 10.9727C99.7639 17.9545 93.6548 20.5727 86.6729 18.8273C82.6894 17.8324 79.8424 14.9407 76.6909 11.7427C71.5573 6.53151 65.615 0.5 52.6366 0.5ZM26.4548 31.9182C12.4911 31.9182 3.76386 38.9 0.272949 52.8636C5.50931 45.8818 11.6184 43.2636 18.6002 45.0091C22.5837 46.0059 25.4308 48.8956 28.5823 52.0937C33.7159 57.3048 39.6582 63.3364 52.6366 63.3364C66.6002 63.3364 75.3275 56.3545 78.8184 42.3909C73.582 49.3727 67.4729 51.9909 60.4911 50.2455C56.5076 49.2505 53.6606 46.3589 50.5091 43.1608C45.3755 37.9497 39.4332 31.9182 26.4548 31.9182Z" fill="#38BDF8"/>
</g>
</g>
<defs>
<clipPath id="clip0_327_1923">
<rect width="104.727" height="64" fill="white" transform="translate(0.272949 0.5)"/>
</clipPath>
</defs>
</svg>
